<svg width="20" height="20" viewBox="0 0 20 20" fill="none" xmlns="http://www.w3.org/2000/svg">
<path fill-rule="evenodd" clip-rule="evenodd" d="M15.6001 11.1667L17.1001 12.675C17.4853 13.0666 17.5985 13.6508 17.3877 14.158C17.1768 14.6652 16.6827 14.9969 16.1334 15H13.3334V15.2833C13.2523 17.0447 11.7617 18.4087 10.0001 18.3333C8.23841 18.4087 6.74777 17.0447 6.66672 15.2833V15H3.86672C3.31742 14.9969 2.82334 14.6652 2.61246 14.158C2.40157 13.6508 2.51486 13.0666 2.90006 12.675L4.40006 11.1667V7.275C4.40301 5.6593 5.10159 4.12313 6.31733 3.05896C7.53307 1.99479 9.14819 1.50571 10.7501 1.71666C13.5713 2.14907 15.6413 4.59612 15.6001 7.45V11.1667ZM10.0001 16.6667C10.8362 16.7257 11.5707 16.1161 11.6667 15.2833V15H8.33339V15.2833C8.4294 16.1161 9.16389 16.7257 10.0001 16.6667Z" fill="#637381"/>
</svg>
