<svg width="22" height="22" viewBox="0 0 22 22" fill="none" xmlns="http://www.w3.org/2000/svg">
<path d="M20.4853 11.2169C20.4853 10.4525 20.422 9.8947 20.285 9.31624H11.3782V12.7664H16.6063C16.501 13.6238 15.9317 14.915 14.6668 15.7827L14.6491 15.8982L17.4653 18.0362L17.6604 18.0553C19.4523 16.4335 20.4853 14.0473 20.4853 11.2169Z" fill="#4285F4"/>
<path d="M11.3775 20.3073C13.9389 20.3073 16.0892 19.4809 17.6597 18.0554L14.6662 15.7827C13.8651 16.3302 12.79 16.7125 11.3775 16.7125C8.86887 16.7125 6.73968 15.0907 5.98068 12.8491L5.86943 12.8583L2.94113 15.0793L2.90283 15.1836C4.46283 18.2206 7.66718 20.3073 11.3775 20.3073Z" fill="#34A853"/>
<path d="M5.98134 12.8491C5.78107 12.2707 5.66517 11.6508 5.66517 11.0104C5.66517 10.3699 5.78108 9.75014 5.9708 9.17167L5.9655 9.04849L3.00049 6.7919L2.90349 6.83712C2.26053 8.09735 1.8916 9.5126 1.8916 11.0104C1.8916 12.5083 2.26053 13.9234 2.90349 15.1836L5.98134 12.8491Z" fill="#FBBC05"/>
<path d="M11.3776 5.30833C13.1589 5.30833 14.3605 6.06241 15.0457 6.69257L17.723 4.13075C16.0787 2.63292 13.9389 1.71356 11.3776 1.71356C7.66725 1.71356 4.46284 3.80018 2.90283 6.83713L5.97016 9.17171C6.73971 6.93014 8.86894 5.30833 11.3776 5.30833Z" fill="#EB4335"/>
</svg>
