<svg width="20" height="20" viewBox="0 0 20 20" fill="none" xmlns="http://www.w3.org/2000/svg">
<path fill-rule="evenodd" clip-rule="evenodd" d="M7.49996 9.16667C9.34091 9.16667 10.8333 7.67428 10.8333 5.83333C10.8333 3.99238 9.34091 2.5 7.49996 2.5C5.65901 2.5 4.16663 3.99238 4.16663 5.83333C4.16663 7.67428 5.65901 9.16667 7.49996 9.16667ZM14.1666 10.8333C15.5473 10.8333 16.6666 9.71405 16.6666 8.33333C16.6666 6.95262 15.5473 5.83333 14.1666 5.83333C12.7859 5.83333 11.6666 6.95262 11.6666 8.33333C11.6666 9.71405 12.7859 10.8333 14.1666 10.8333ZM18.3333 15.8333C18.3333 16.2936 17.9602 16.6667 17.5 16.6667H13.3333C13.3333 17.1269 12.9602 17.5 12.5 17.5H2.49996C2.03972 17.5 1.66663 17.1269 1.66663 16.6667C1.66981 14.3108 3.08975 12.1882 5.26598 11.2859C7.44222 10.3837 9.94752 10.8791 11.6166 12.5417C12.8732 11.5693 14.5735 11.3962 16.0002 12.0954C17.427 12.7946 18.3319 14.2444 18.3333 15.8333Z" fill="#637381"/>
</svg>
